<svg width="102" height="34" viewBox="0 0 102 34" fill="none" xmlns="http://www.w3.org/2000/svg">
<path d="M40.5609 0.143555L58.9108 0.235963L59.8395 0.929834C62.0105 4.74288 64.9186 8.42137 67.0408 12.2215C68.2294 14.3501 68.1515 14.9321 67.1025 17.0785C65.9221 19.4957 64.2253 22.3101 62.8207 24.6382C62.3303 25.4504 61.4146 27.2499 60.731 27.7395C59.3573 28.7236 58.1995 28.174 56.7707 28.1497C51.3506 28.0557 45.9338 28.2178 40.5284 28.3199C40.2134 28.3264 39.8984 28.5047 39.5541 28.4918C38.4955 28.4512 38.2048 27.5336 38.7325 26.6906C40.7589 23.0867 43.9041 19.5136 45.7714 15.8854C46.3592 14.7424 46.606 14.1296 46.1092 12.8553C45.3834 10.9958 43.5404 8.42948 42.5288 6.54241C41.9183 5.40433 40.3157 2.79745 40.0364 1.73719C39.8578 1.05791 39.8724 0.480763 40.5625 0.145176L40.5609 0.143555ZM49.8633 23.2926H54.3286C54.4942 23.2926 54.8173 22.9181 54.9391 22.7673C55.9555 21.4995 58.4009 17.3882 59.0894 15.887C59.6236 14.7213 59.6528 13.8718 59.0894 12.7029C57.9463 10.3295 55.6974 7.86692 54.5494 5.40109C54.4438 5.19033 53.6482 4.81097 53.5167 4.81097H49.8633L54.499 12.5846C55.043 13.8329 55.0268 14.5852 54.4731 15.8173L49.8633 23.2926Z" fill="#181416"/>
<path d="M10.9751 0.109893C11.3956 0.476283 11.4086 0.969126 11.3908 1.49115C11.2706 5.13722 10.2395 9.17885 10.0836 12.8379C10.0658 13.2497 9.95861 13.7668 10.3256 14.0489C12.6378 10.5796 14.5684 6.86217 16.8335 3.36525C17.5707 2.22879 18.4183 0.283361 19.9008 0.105029C21.013 -0.0295296 24.332 -0.0392568 25.4329 0.101787C26.3454 0.218513 26.261 0.986959 26.0645 1.72136L17.5496 15.4431C17.4993 15.936 18.8324 18.6531 19.1457 19.3486C20.4561 22.2603 21.9386 25.1087 23.3188 27.9879C23.5298 28.7386 23.4454 29.661 22.6287 29.8945C21.6122 30.1863 17.8679 30.7359 16.8124 30.7537C15.9324 30.7683 15.364 30.2592 14.9191 29.5654L10.1567 18.5947L9.5949 18.4278L7.78442 32.1042C7.56847 32.4365 7.18202 32.5062 6.83454 32.6148C4.93801 33.2049 2.66152 33.3736 0.734141 33.9993C0.0716546 34.0253 -0.0306411 33.2909 0.00670494 32.7818L3.11455 1.34038C3.06096 1.04208 3.62765 0.109893 3.83062 0.109893H10.9751Z" fill="#181416"/>
<path d="M88.3448 7.89127C89.194 5.91666 89.8143 3.52216 90.7512 1.6205C91.1328 0.843943 91.5257 0.221405 92.4821 0.1063C93.5505 -0.0217743 96.7996 -0.0347439 97.8534 0.103058C98.7189 0.216541 98.9949 1.14549 98.8666 1.93501L93.3817 16.2291L101.69 31.9384C102.091 32.7685 102.309 34.0963 101.01 33.9277C100.11 33.8109 95.84 32.7831 95.2457 32.3729C94.7553 32.0341 94.2341 31.3029 93.898 30.8004C92.4496 28.6312 91.3926 25.9498 89.8874 23.7806L87.0799 29.8925C86.6821 30.5961 85.9449 30.7858 85.185 30.7534C84.4706 30.7226 79.5799 30.0076 79.2031 29.7887C78.7501 29.5245 78.6446 28.4691 78.8427 27.9908L84.6053 15.6114C84.5777 15.3018 84.4235 15.0488 84.2903 14.7797C82.1405 10.4122 78.4465 6.06095 76.0969 1.72425C75.9021 0.989851 75.8176 0.221405 76.7286 0.104679C77.8814 -0.0428499 80.9097 -0.010426 82.1031 0.104679C82.5789 0.150072 82.7997 0.21492 83.204 0.464584C84.6524 1.35786 86.6561 6.0496 87.8853 7.6254C88.0249 7.80535 88.0477 7.96099 88.3432 7.89452L88.3448 7.89127Z" fill="#181416"/>
<path d="M69.4612 7.92214C69.9954 7.76165 72.759 7.84271 73.4961 7.88486C75.6557 8.00645 76.2971 8.05832 77.5701 9.8157C78.723 11.4093 80.7364 14.3583 80.3175 16.3313C79.9505 18.0611 75.8928 25.8493 74.7903 27.6732C73.9216 29.1095 73.3695 29.1857 71.7035 29.1274C70.5832 28.7107 66.6635 29.0804 66.0058 28.3346C65.4797 27.738 65.7347 27.1414 66.014 26.5286C67.511 23.2278 70.0912 19.8655 71.5493 16.4934C72.8272 13.5363 70.3623 12.0773 69.216 9.72815C68.9578 9.19964 68.6054 8.18153 69.4612 7.92376V7.92214Z" fill="#181416"/>
<path d="M31.8795 8.09232C32.2465 7.72431 37.1567 7.64973 37.9361 7.72269C39.0841 7.83131 39.4884 8.22202 40.0891 9.13961C40.6055 9.92751 42.1448 12.6852 42.2325 13.4844C42.4501 15.4477 41.4758 16.3815 40.5129 17.9297C38.3777 21.3683 36.0282 24.6998 33.7695 28.0573C33.2321 28.5372 32.6167 28.8177 31.9071 28.9538C30.6471 29.1954 28.2017 29.3981 26.8865 29.4516C25.633 29.5018 25.0225 29.3559 25.5242 27.9293C27.6139 23.9071 31.2073 19.953 33.2094 15.9875C33.6445 15.1267 33.7972 14.1994 33.5487 13.2364C33.2629 12.1275 30.8403 9.13313 31.8779 8.09232H31.8795Z" fill="#181416"/>
<path d="M64.593 0.143981C65.1938 -0.0278657 69.2629 0.0256337 70.0861 0.103451C70.7778 0.168299 71.2795 0.357979 71.7829 0.841094C72.0865 1.13291 73.2378 2.89353 73.392 3.28748C74.4199 5.8976 71.8397 4.99784 70.4108 4.96703C68.3552 4.92164 66.9019 5.51662 65.4552 3.75438C64.9177 3.09942 63.0861 0.57684 64.593 0.145602V0.143981Z" fill="#181416"/>
<path d="M36.8346 4.76906C36.6333 4.95874 36.2566 4.95712 35.9903 4.97981C35.0761 5.05763 30.5443 5.09654 29.9353 4.85012C29.0212 4.48211 27.1247 0.810102 28.4318 0.189185C28.7614 0.0335504 33.5206 0.0335504 34.2042 0.100019C34.8878 0.166488 35.3927 0.382107 35.81 0.928449C36.1315 1.34834 37.2373 3.60504 37.1707 4.0379C37.1529 4.15463 36.9109 4.69448 36.833 4.76744L36.8346 4.76906Z" fill="#181416"/>
</svg>
