<svg width="80" height="80" viewBox="0 0 80 80" fill="none" xmlns="http://www.w3.org/2000/svg">
<path d="M37.8837 1.08398C38.6284 -0.361379 40.6949 -0.361377 41.4396 1.08398L48.5367 14.8594C48.9841 15.7279 49.9935 16.146 50.9241 15.8483L65.6832 11.126C67.2318 10.6305 68.693 12.0918 68.1975 13.6404L63.4752 28.3995C63.1775 29.33 63.5956 30.3394 64.4641 30.7869L78.2396 37.884C79.6849 38.6286 79.6849 40.6952 78.2396 41.4398L64.4641 48.5369C63.5956 48.9844 63.1775 49.9938 63.4752 50.9243L68.1975 65.6834C68.693 67.232 67.2318 68.6933 65.6832 68.1978L50.9241 63.4755C49.9935 63.1777 48.9841 63.5959 48.5367 64.4644L41.4396 78.2398C40.6949 79.6852 38.6284 79.6852 37.8837 78.2398L30.7866 64.4644C30.3392 63.5959 29.3298 63.1777 28.3992 63.4755L13.6401 68.1978C12.0916 68.6933 10.6303 67.232 11.1258 65.6834L15.8481 50.9243C16.1458 49.9938 15.7277 48.9844 14.8592 48.5369L1.08374 41.4398C-0.361623 40.6952 -0.361621 38.6286 1.08374 37.884L14.8592 30.7869C15.7277 30.3394 16.1458 29.33 15.8481 28.3995L11.1258 13.6404C10.6303 12.0918 12.0916 10.6305 13.6401 11.126L28.3992 15.8483C29.3298 16.146 30.3392 15.7279 30.7866 14.8594L37.8837 1.08398Z" fill="#FF6A00"/>
</svg>
